<svg width="31" height="31" viewBox="0 0 31 31" fill="none" xmlns="http://www.w3.org/2000/svg">
<path d="M4.25078 10.3334C4.49573 8.79805 4.8312 7.72393 5.16668 7.463C5.81251 6.96069 10.3333 6.45837 15.5 6.45837C20.6667 6.45837 25.1875 6.96069 25.8333 7.463C26.4792 7.96532 27.125 11.4815 27.125 15.5C27.125 19.5186 26.4792 23.0348 25.8333 23.5371C25.2982 23.9533 22.1025 24.3695 18.0833 24.5M3.875 14.2084C6.4981 14.5001 8.94386 15.6758 10.8101 17.542C12.6764 19.4083 13.852 21.854 14.1437 24.4771M3.875 19.4396C5.11615 19.6928 6.25547 20.3053 7.15116 21.201C8.04685 22.0967 8.65937 23.236 8.9125 24.4771M3.875 24.4771H3.88792" stroke="white" stroke-width="2" stroke-linecap="round" stroke-linejoin="round"/>
</svg>
