<svg width="25" height="25" viewBox="0 0 25 25" fill="none" xmlns="http://www.w3.org/2000/svg">
<path d="M12.1571 21.5C14.2393 21.5 16.257 20.778 17.8666 19.457C19.4761 18.1361 20.5779 16.2979 20.9841 14.2557C21.3903 12.2136 21.0758 10.0937 20.0943 8.25737C19.1127 6.42104 17.5248 4.98187 15.6011 4.18506C13.6774 3.38825 11.5369 3.28311 9.54437 3.88756C7.55184 4.492 5.83053 5.76863 4.67374 7.49992C3.51694 9.23121 2.99624 11.31 3.20034 13.3822C3.40444 15.4544 4.32073 17.3917 5.79307 18.864" stroke="#DF8317" stroke-width="2" stroke-linecap="round"/>
<path d="M16.157 10.5L12.559 14.818C11.904 15.604 11.576 15.998 11.135 16.018C10.695 16.038 10.332 15.675 9.60798 14.951L8.15698 13.5" stroke="#DF8317" stroke-width="2" stroke-linecap="round"/>
</svg>
