<svg width="150" height="112" viewBox="0 0 150 112" fill="none" xmlns="http://www.w3.org/2000/svg">
<path d="M43.75 46.6667V42C43.75 29.1133 57.7411 18.6667 75 18.6667C92.2589 18.6667 106.25 29.1133 106.25 42V46.6667C120.057 46.6667 131.25 55.024 131.25 65.3333C131.25 72.2426 126.223 78.4391 118.75 81.6667M43.75 46.6667C29.9429 46.6667 18.75 55.024 18.75 65.3333C18.75 72.2426 23.7775 78.4391 31.25 81.6667M43.75 46.6667C46.4553 46.6667 49.0603 46.9875 51.5004 47.581M75 56V98M75 56L93.75 70M75 56L56.25 70" stroke="#24383F" stroke-width="1.5" stroke-linecap="round" stroke-linejoin="round"/>
</svg>
